<?xml version="1.0" standalone="no"?>
<!DOCTYPE svg PUBLIC "-//W3C//DTD SVG 20010904//EN"
 "http://www.w3.org/TR/2001/REC-SVG-20010904/DTD/svg10.dtd">
<svg version="1.0" xmlns="http://www.w3.org/2000/svg"
 width="512.000000pt" height="512.000000pt" viewBox="0 0 512.000000 512.000000"
 preserveAspectRatio="xMidYMid meet">
<metadata>
Created by potrace 1.14, written by Peter Selinger 2001-2017
</metadata>
<g transform="translate(0.000000,512.000000) scale(0.100000,-0.100000)"
fill="#000000" stroke="none">
<path d="M604 5105 c-246 -55 -455 -231 -550 -465 -54 -133 -54 -133 -54
-1046 l0 -844 40 0 40 0 0 75 0 75 35 0 c34 0 35 1 35 40 l0 40 40 0 c39 0 40
1 40 35 0 33 2 35 35 35 33 0 35 2 35 35 0 33 2 35 35 35 34 0 35 1 35 40 l0
40 40 0 c39 0 40 1 40 35 l0 35 75 0 75 0 0 40 0 40 75 0 75 0 0 35 0 35 70 0
70 0 0 40 0 40 115 0 115 0 0 35 0 35 590 0 590 0 0 -35 0 -35 115 0 115 0 0
-40 0 -40 110 0 110 0 0 -35 0 -35 75 0 75 0 0 -40 0 -40 75 0 75 0 0 -35 c0
-33 2 -35 35 -35 34 0 35 -1 35 -40 l0 -40 40 0 c39 0 40 -1 40 -35 0 -33 2
-35 35 -35 33 0 35 -2 35 -35 0 -33 2 -35 35 -35 l35 0 0 -75 0 -75 40 0 40 0
0 -75 0 -75 35 0 35 0 0 -75 0 -75 40 0 40 0 0 -110 0 -110 35 0 35 0 0 -115
0 -115 -75 0 -75 0 0 -35 0 -35 -110 0 -110 0 0 -35 0 -35 110 0 110 0 0 35 0
35 115 0 115 0 0 35 0 35 145 0 145 0 0 40 0 40 115 0 115 0 0 35 0 35 260 0
260 0 0 -35 0 -35 70 0 70 0 0 -40 0 -40 40 0 c39 0 40 -1 40 -35 0 -33 2 -35
35 -35 l35 0 0 -110 0 -110 -35 0 c-33 0 -35 2 -35 35 l0 35 -185 0 -185 0 0
-35 0 -35 -75 0 -75 0 0 -40 0 -40 -75 0 -75 0 0 -35 0 -35 -75 0 -75 0 0 -40
0 -40 -75 0 -75 0 0 -35 0 -35 -75 0 -75 0 0 -35 0 -35 -70 0 -70 0 0 -40 0
-40 -75 0 -75 0 0 -35 c0 -34 -1 -35 -40 -35 l-40 0 0 -40 0 -40 -75 0 -75 0
0 -35 0 -35 -70 0 -70 0 0 -40 0 -40 -75 0 -75 0 0 -35 0 -35 -75 0 -75 0 0
-35 0 -35 -150 0 -150 0 0 -40 0 -40 -220 0 -220 0 0 40 0 40 -75 0 -75 0 0
35 0 35 -75 0 -75 0 0 35 c0 33 -2 35 -35 35 -33 0 -35 -2 -35 -35 0 -33 2
-35 35 -35 33 0 35 -2 35 -35 l0 -35 75 0 75 0 0 -40 0 -40 75 0 75 0 0 -35 0
-35 220 0 220 0 0 35 0 35 150 0 150 0 0 40 0 40 75 0 75 0 0 35 0 35 75 0 75
0 0 35 0 35 70 0 70 0 0 40 0 40 75 0 75 0 0 35 c0 34 1 35 40 35 l40 0 0 40
0 40 75 0 75 0 0 35 0 35 70 0 70 0 0 40 0 40 75 0 75 0 0 35 0 35 75 0 75 0
0 35 0 35 75 0 75 0 0 40 0 40 75 0 75 0 0 35 0 35 75 0 75 0 0 40 0 40 185 0
185 0 0 -40 c0 -39 1 -40 35 -40 l35 0 0 -110 0 -110 -35 0 -35 0 0 -75 0 -75
-40 0 c-39 0 -40 -1 -40 -35 0 -33 -2 -35 -35 -35 -34 0 -35 -1 -35 -40 0 -39
-1 -40 -35 -40 -33 0 -35 -2 -35 -35 0 -34 -1 -35 -40 -35 l-40 0 0 -40 c0
-39 -1 -40 -35 -40 -33 0 -35 -2 -35 -35 0 -34 -1 -35 -40 -35 -39 0 -40 -1
-40 -35 l0 -35 -75 0 -75 0 0 -40 c0 -39 -1 -40 -35 -40 -33 0 -35 -2 -35 -35
l0 -35 -75 0 -75 0 0 -40 c0 -39 -1 -40 -35 -40 -33 0 -35 -2 -35 -35 l0 -35
-75 0 -75 0 0 -40 0 -40 -40 0 c-39 0 -40 -1 -40 -35 l0 -35 -70 0 -70 0 0
-35 c0 -34 -1 -35 -40 -35 l-40 0 0 -40 0 -40 40 0 40 0 0 40 0 40 70 0 70 0
0 -191 0 -190 318 3 c355 5 374 7 517 78 151 75 270 194 345 345 82 166 75
-27 75 2135 0 2162 7 1969 -75 2135 -75 151 -194 270 -345 345 -167 82 35 75
-2115 77 -1578 1 -1926 -1 -1976 -12z"/>
<path d="M1120 2495 l0 -35 -75 0 -75 0 0 -40 0 -40 -40 0 c-39 0 -40 -1 -40
-35 0 -33 -2 -35 -35 -35 -34 0 -35 -1 -35 -40 0 -39 -1 -40 -35 -40 l-35 0 0
-75 0 -75 -40 0 -40 0 0 -220 0 -220 -35 0 c-34 0 -35 -1 -35 -40 l0 -40 -40
0 c-39 0 -40 -1 -40 -35 0 -34 1 -35 40 -35 39 0 40 -1 40 -35 0 -34 -1 -35
-40 -35 l-40 0 0 -40 0 -40 40 0 c39 0 40 -1 40 -35 0 -34 -1 -35 -40 -35
l-40 0 0 -40 0 -40 40 0 c39 0 40 -1 40 -35 0 -33 2 -35 35 -35 34 0 35 -1 35
-40 l0 -40 40 0 40 0 0 40 c0 39 1 40 35 40 34 0 35 -1 35 -40 0 -39 1 -40 35
-40 33 0 35 -2 35 -35 0 -34 1 -35 40 -35 l40 0 0 110 0 110 35 0 35 0 0 75 0
75 40 0 40 0 0 40 0 40 75 0 75 0 0 35 0 35 110 0 110 0 0 35 0 35 220 0 220
0 0 -35 0 -35 75 0 75 0 0 295 0 295 -35 0 -35 0 0 75 0 75 -40 0 -40 0 0 40
c0 39 -1 40 -35 40 -33 0 -35 2 -35 35 0 33 -2 35 -35 35 -34 0 -35 1 -35 40
l0 40 -75 0 -75 0 0 35 0 35 -260 0 -260 0 0 -35z m520 -75 l0 -40 75 0 75 0
0 -35 c0 -33 2 -35 35 -35 34 0 35 -1 35 -40 0 -39 1 -40 35 -40 l35 0 0 -75
0 -75 40 0 40 0 0 -260 0 -260 -40 0 -40 0 0 40 c0 39 -1 40 -35 40 l-35 0 0
185 0 185 -35 0 -35 0 0 75 0 75 -40 0 c-39 0 -40 1 -40 35 l0 35 -75 0 -75 0
0 40 0 40 -185 0 -185 0 0 -40 0 -40 -75 0 -75 0 0 -35 c0 -33 -2 -35 -35 -35
l-35 0 0 -75 0 -75 -40 0 -40 0 0 -185 0 -185 40 0 40 0 0 -75 0 -75 35 0 35
0 0 -75 0 -75 -75 0 -75 0 0 -35 c0 -34 1 -35 40 -35 l40 0 0 -40 0 -40 -40 0
c-39 0 -40 -1 -40 -35 0 -33 -2 -35 -35 -35 -33 0 -35 2 -35 35 0 33 -2 35
-35 35 -33 0 -35 -2 -35 -35 0 -34 -1 -35 -40 -35 -39 0 -40 1 -40 35 0 33 -2
35 -35 35 -34 0 -35 1 -35 40 0 39 1 40 35 40 33 0 35 2 35 35 0 33 -2 35 -35
35 -34 0 -35 1 -35 40 0 39 1 40 35 40 33 0 35 2 35 35 0 33 -2 35 -35 35 -33
0 -35 2 -35 35 0 33 2 35 35 35 33 0 35 -2 35 -35 0 -34 1 -35 40 -35 39 0 40
-1 40 -35 0 -33 2 -35 35 -35 l35 0 0 70 0 70 -35 0 -35 0 0 260 0 260 35 0
35 0 0 75 0 75 35 0 c34 0 35 1 35 40 l0 40 40 0 c39 0 40 1 40 35 l0 35 75 0
75 0 0 40 0 40 260 0 260 0 0 -40z m-300 -485 l0 -75 -75 0 -75 0 0 75 0 75
75 0 75 0 0 -75z"/>
<path d="M670 1380 l0 -40 40 0 c39 0 40 -1 40 -35 0 -34 -1 -35 -40 -35 l-40
0 0 -40 0 -40 40 0 40 0 0 40 c0 39 1 40 35 40 34 0 35 -1 35 -40 0 -39 1 -40
35 -40 34 0 35 1 35 40 0 39 -1 40 -35 40 -33 0 -35 2 -35 35 0 33 2 35 35 35
34 0 35 1 35 40 0 39 -1 40 -35 40 -34 0 -35 -1 -35 -40 0 -39 -1 -40 -35 -40
-34 0 -35 1 -35 40 l0 40 -40 0 -40 0 0 -40z"/>
</g>
</svg>
