<svg fill="#fff" version="1.1" id="FLIPPER" x="0" y="0" xml:space="preserve" width="58.8" height="12" xmlns="http://www.w3.org/2000/svg"><path d="M5.467 6q0 .383-.067.667h-.667q.067.266.067.666 0 .384-.067.667h-.666q.066.267.066.667 0 .383-.066.666H1.4q.067.267.067.667 0 .383-.067.667.067.266.067.666 0 .384-.067.667H.067Q0 11.717 0 11.333q0-.4.067-.666Q0 10.383 0 10q0-.4.067-.667Q0 9.05 0 8.667q0-.4.067-.667Q0 7.717 0 7.333q0-.4.067-.666Q0 6.383 0 6q0-.4.067-.667Q0 5.05 0 4.667q0-.4.067-.667Q0 3.717 0 3.333q0-.4.067-.666H1.4q.067.266.067.666 0 .384-.067.667h.667q.066.267.066.667 0 .383-.066.666H1.4q.067.267.067.667 0 .383-.067.667.067.266.067.666 0 .384-.067.667h2q-.067-.283-.067-.667 0-.4.067-.666h.667Q4 6.383 4 6q0-.4.067-.667H3.4q-.067-.283-.067-.666 0-.4.067-.667H2.067Q2 3.717 2 3.333q0-.4.067-.666h2q.066.266.066.666 0 .384-.066.667h.666q.067.267.067.667 0 .383-.067.666H5.4q.067.267.067.667zM12.133 3.333q0 .384-.066.667.066.267.066.667 0 .383-.066.666h-.5q.066.267.066.667 0 .383-.066.667.066.266.066.666 0 .384-.066.667h-.334q.067.267.067.667 0 .383-.067.666h-1q-.066-.283-.066-.666 0-.4.066-.667H9.9q-.067-.283-.067-.667 0-.4.067-.666h-1q.067.266.067.666 0 .384-.067.667h-.333q.066.267.066.667 0 .383-.066.666h-1Q7.5 9.05 7.5 8.667q0-.4.067-.667h-.334q-.066-.283-.066-.667 0-.4.066-.666-.066-.284-.066-.667 0-.4.066-.667h-.5q-.066-.283-.066-.666 0-.4.066-.667-.066-.283-.066-.667 0-.4.066-.666h1.334q.066.266.066.666 0 .384-.066.667.066.267.066.667 0 .383-.066.666.066.267.066.667 0 .383-.066.667h.5Q8.5 6.383 8.5 6q0-.4.067-.667H8.9q-.067-.283-.067-.666 0-.4.067-.667-.067-.283-.067-.667 0-.4.067-.666h1q.067.266.067.666 0 .384-.067.667.067.267.067.667 0 .383-.067.666h.333Q10.3 5.6 10.3 6q0 .383-.067.667h.5q-.066-.284-.066-.667 0-.4.066-.667-.066-.283-.066-.666 0-.4.066-.667-.066-.283-.066-.667 0-.4.066-.666h1.334q.066.266.066.666zM18.067 4q.066.267.066.667 0 .383-.066.666H15.4q.067.267.067.667 0 .383-.067.667.067.266.067.666 0 .384-.067.667.067.267.067.667 0 .383-.067.666h-1.333Q14 9.05 14 8.667q0-.4.067-.667Q14 7.717 14 7.333q0-.4.067-.666Q14 6.383 14 6q0-.4.067-.667Q14 5.05 14 4.667q0-.4.067-.667Q14 3.717 14 3.333q0-.4.067-.666Q14 2.383 14 2q0-.4.067-.667Q14 1.05 14 .667q0-.4.067-.667h4q.066.267.066.667 0 .383-.066.666H15.4q.067.267.067.667 0 .383-.067.667.067.266.067.666 0 .384-.067.667zM24.733 8q.067.267.067.667 0 .383-.067.666h-4q-.066-.283-.066-.666 0-.4.066-.667h1.334Q22 7.717 22 7.333q0-.4.067-.666Q22 6.383 22 6q0-.4.067-.667Q22 5.05 22 4.667q0-.4.067-.667Q22 3.717 22 3.333q0-.4.067-.666Q22 2.383 22 2q0-.4.067-.667h-1Q21 1.05 21 .667q0-.4.067-.667H23.4q.067.267.067.667 0 .383-.067.666.067.267.067.667 0 .383-.067.667.067.266.067.666 0 .384-.067.667.067.267.067.667 0 .383-.067.666.067.267.067.667 0 .383-.067.667.067.266.067.666 0 .384-.067.667zM28.733 1.333q-.066-.283-.066-.666 0-.4.066-.667h1.334q.066.267.066.667 0 .383-.066.666zM31.4 8q.067.267.067.667 0 .383-.067.666h-4q-.067-.283-.067-.666 0-.4.067-.667h1.333q-.066-.283-.066-.667 0-.4.066-.666-.066-.284-.066-.667 0-.4.066-.667-.066-.283-.066-.666 0-.4.066-.667h-1q-.066-.283-.066-.667 0-.4.066-.666h2.334q.066.266.066.666 0 .384-.066.667.066.267.066.667 0 .383-.066.666.066.267.066.667 0 .383-.066.667.066.266.066.666 0 .384-.066.667zM38.8 6q0 .383-.067.667h-.666q.066.266.066.666 0 .384-.066.667H37.4q.067.267.067.667 0 .383-.067.666h-2.667q.067.267.067.667 0 .383-.067.667.067.266.067.666 0 .384-.067.667H33.4q-.067-.283-.067-.667 0-.4.067-.666-.067-.284-.067-.667 0-.4.067-.667-.067-.283-.067-.666 0-.4.067-.667-.067-.283-.067-.667 0-.4.067-.666-.067-.284-.067-.667 0-.4.067-.667-.067-.283-.067-.666 0-.4.067-.667-.067-.283-.067-.667 0-.4.067-.666h1.333q.067.266.067.666 0 .384-.067.667h.667q.067.267.067.667 0 .383-.067.666h-.667Q34.8 5.6 34.8 6q0 .383-.067.667.067.266.067.666 0 .384-.067.667h2q-.066-.283-.066-.667 0-.4.066-.666h.667q-.067-.284-.067-.667 0-.4.067-.667h-.667q-.066-.283-.066-.666 0-.4.066-.667H35.4q-.067-.283-.067-.667 0-.4.067-.666h2q.067.266.067.666 0 .384-.067.667h.667q.066.267.066.667 0 .383-.066.666h.666Q38.8 5.6 38.8 6zM45.467 6q0 .383-.067.667h-.667q.067.266.067.666 0 .384-.067.667h-.666q.066.267.066.667 0 .383-.066.666H41.4q.067.267.067.667 0 .383-.067.667.067.266.067.666 0 .384-.067.667h-1.333Q40 11.717 40 11.333q0-.4.067-.666Q40 10.383 40 10q0-.4.067-.667Q40 9.05 40 8.667q0-.4.067-.667Q40 7.717 40 7.333q0-.4.067-.666Q40 6.383 40 6q0-.4.067-.667Q40 5.05 40 4.667q0-.4.067-.667Q40 3.717 40 3.333q0-.4.067-.666H41.4q.067.266.067.666 0 .384-.067.667h.667q.066.267.066.667 0 .383-.066.666H41.4q.067.267.067.667 0 .383-.067.667.067.266.067.666 0 .384-.067.667h2q-.067-.283-.067-.667 0-.4.067-.666h.667Q44 6.383 44 6q0-.4.067-.667H43.4q-.067-.283-.067-.666 0-.4.067-.667h-1.333Q42 3.717 42 3.333q0-.4.067-.666h2q.066.266.066.666 0 .384-.066.667h.666q.067.267.067.667 0 .383-.067.666h.667q.067.267.067.667zM52.133 4.667q0 .383-.066.666.066.267.066.667 0 .383-.066.667h-3.5q.066.266.066.666 0 .384-.066.667H51.4q.067.267.067.667 0 .383-.067.666h-3.333Q48 9.05 48 8.667q0-.4.067-.667h-.834q-.066-.283-.066-.667 0-.4.066-.666h-.5q-.066-.284-.066-.667 0-.4.066-.667h.5q-.066-.283-.066-.666 0-.4.066-.667h.834Q48 3.717 48 3.333q0-.4.067-.666H51.4q.067.266.067.666 0 .384-.067.667h.667q.066.267.066.667zm-1.4.666q-.066-.283-.066-.666 0-.4.066-.667h-2.166q.066.267.066.667 0 .383-.066.666zM58.733 4q.067.267.067.667 0 .383-.067.666H57.4q-.067-.283-.067-.666 0-.4.067-.667h-1.167q.067.267.067.667 0 .383-.067.666h-.5Q55.8 5.6 55.8 6q0 .383-.067.667.067.266.067.666 0 .384-.067.667h1q.067.267.067.667 0 .383-.067.666H53.4q-.067-.283-.067-.666 0-.4.067-.667h1q-.067-.283-.067-.667 0-.4.067-.666-.067-.284-.067-.667 0-.4.067-.667-.067-.283-.067-.666 0-.4.067-.667h-1q-.067-.283-.067-.667 0-.4.067-.666h1.667q.066.266.066.666 0 .384-.066.667h.666q-.066-.283-.066-.667 0-.4.066-.666h2.5q.067.266.067.666 0 .384-.067.667z"/></svg>
